# WaveFront *.obj file (generated by CINEMA 4D)

v 5.05000019073486 -0.15000000596046 0
v 5.25 -0.15000000596046 0
v 5.25 0.15000000596046 0
v 5.05000019073486 0.15000000596046 0
v 4.97327899932861 -0.15000000596046 -0.87692332267761
v 5.17024087905884 -0.15000000596046 -0.91165292263031
v 5.17024087905884 0.15000000596046 -0.91165292263031
v 4.97327899932861 0.15000000596046 -0.87692332267761
v 4.74544763565063 -0.15000000596046 -1.72720170021057
v 4.93338632583618 -0.15000000596046 -1.79560577869415
v 4.93338632583618 0.15000000596046 -1.79560577869415
v 4.74544763565063 0.15000000596046 -1.72720170021057
v 4.37342834472656 -0.15000000596046 -2.52500009536743
v 4.54663324356079 -0.15000000596046 -2.625
v 4.54663324356079 0.15000000596046 -2.625
v 4.37342834472656 0.15000000596046 -2.52500009536743
v 3.8685245513916 -0.15000000596046 -3.24607753753662
v 4.02173328399658 -0.15000000596046 -3.3746349811554
v 4.02173328399658 0.15000000596046 -3.3746349811554
v 3.8685245513916 0.15000000596046 -3.24607753753662
v 3.24607753753662 -0.15000000596046 -3.8685245513916
v 3.3746349811554 -0.15000000596046 -4.02173328399658
v 3.3746349811554 0.15000000596046 -4.02173328399658
v 3.24607753753662 0.15000000596046 -3.8685245513916
v 2.52500009536743 -0.15000000596046 -4.37342834472656
v 2.625 -0.15000000596046 -4.54663324356079
v 2.625 0.15000000596046 -4.54663324356079
v 2.52500009536743 0.15000000596046 -4.37342834472656
v 1.72720170021057 -0.15000000596046 -4.74544763565063
v 1.79560577869415 -0.15000000596046 -4.93338632583618
v 1.79560577869415 0.15000000596046 -4.93338632583618
v 1.72720170021057 0.15000000596046 -4.74544763565063
v 0.87692332267761 -0.15000000596046 -4.97327899932861
v 0.91165292263031 -0.15000000596046 -5.17024087905884
v 0.91165292263031 0.15000000596046 -5.17024087905884
v 0.87692332267761 0.15000000596046 -4.97327899932861
v 0 -0.15000000596046 -5.05000019073486
v 0 -0.15000000596046 -5.25
v 0 0.15000000596046 -5.25
v 0 0.15000000596046 -5.05000019073486
v -0.87692332267761 -0.15000000596046 -4.97327899932861
v -0.91165292263031 -0.15000000596046 -5.17024087905884
v -0.91165292263031 0.15000000596046 -5.17024087905884
v -0.87692332267761 0.15000000596046 -4.97327899932861
v -1.72720170021057 -0.15000000596046 -4.74544763565063
v -1.79560577869415 -0.15000000596046 -4.93338632583618
v -1.79560577869415 0.15000000596046 -4.93338632583618
v -1.72720170021057 0.15000000596046 -4.74544763565063
v -2.52500009536743 -0.15000000596046 -4.37342834472656
v -2.625 -0.15000000596046 -4.54663324356079
v -2.625 0.15000000596046 -4.54663324356079
v -2.52500009536743 0.15000000596046 -4.37342834472656
v -3.24607753753662 -0.15000000596046 -3.8685245513916
v -3.3746349811554 -0.15000000596046 -4.02173328399658
v -3.3746349811554 0.15000000596046 -4.02173328399658
v -3.24607753753662 0.15000000596046 -3.8685245513916
v -3.8685245513916 -0.15000000596046 -3.24607753753662
v -4.02173328399658 -0.15000000596046 -3.3746349811554
v -4.02173328399658 0.15000000596046 -3.3746349811554
v -3.8685245513916 0.15000000596046 -3.24607753753662
v -4.37342834472656 -0.15000000596046 -2.52500009536743
v -4.54663324356079 -0.15000000596046 -2.625
v -4.54663324356079 0.15000000596046 -2.625
v -4.37342834472656 0.15000000596046 -2.52500009536743
v -4.74544763565063 -0.15000000596046 -1.72720170021057
v -4.93338632583618 -0.15000000596046 -1.79560577869415
v -4.93338632583618 0.15000000596046 -1.79560577869415
v -4.74544763565063 0.15000000596046 -1.72720170021057
v -4.97327899932861 -0.15000000596046 -0.87692332267761
v -5.17024087905884 -0.15000000596046 -0.91165292263031
v -5.17024087905884 0.15000000596046 -0.91165292263031
v -4.97327899932861 0.15000000596046 -0.87692332267761
v -5.05000019073486 -0.15000000596046 -0
v -5.25 -0.15000000596046 -0
v -5.25 0.15000000596046 -0
v -5.05000019073486 0.15000000596046 -0
v -4.97327899932861 -0.15000000596046 0.87692332267761
v -5.17024087905884 -0.15000000596046 0.91165292263031
v -5.17024087905884 0.15000000596046 0.91165292263031
v -4.97327899932861 0.15000000596046 0.87692332267761
v -4.74544763565063 -0.15000000596046 1.72720170021057
v -4.93338632583618 -0.15000000596046 1.79560577869415
v -4.93338632583618 0.15000000596046 1.79560577869415
v -4.74544763565063 0.15000000596046 1.72720170021057
v -4.37342834472656 -0.15000000596046 2.52500009536743
v -4.54663324356079 -0.15000000596046 2.625
v -4.54663324356079 0.15000000596046 2.625
v -4.37342834472656 0.15000000596046 2.52500009536743
v -3.8685245513916 -0.15000000596046 3.24607753753662
v -4.02173328399658 -0.15000000596046 3.3746349811554
v -4.02173328399658 0.15000000596046 3.3746349811554
v -3.8685245513916 0.15000000596046 3.24607753753662
v -3.24607753753662 -0.15000000596046 3.8685245513916
v -3.3746349811554 -0.15000000596046 4.02173328399658
v -3.3746349811554 0.15000000596046 4.02173328399658
v -3.24607753753662 0.15000000596046 3.8685245513916
v -2.52500009536743 -0.15000000596046 4.37342834472656
v -2.625 -0.15000000596046 4.54663324356079
v -2.625 0.15000000596046 4.54663324356079
v -2.52500009536743 0.15000000596046 4.37342834472656
v -1.72720170021057 -0.15000000596046 4.74544763565063
v -1.79560577869415 -0.15000000596046 4.93338632583618
v -1.79560577869415 0.15000000596046 4.93338632583618
v -1.72720170021057 0.15000000596046 4.74544763565063
v -0.87692332267761 -0.15000000596046 4.97327899932861
v -0.91165292263031 -0.15000000596046 5.17024087905884
v -0.91165292263031 0.15000000596046 5.17024087905884
v -0.87692332267761 0.15000000596046 4.97327899932861
v -0 -0.15000000596046 5.05000019073486
v -0 -0.15000000596046 5.25
v -0 0.15000000596046 5.25
v -0 0.15000000596046 5.05000019073486
v 0.87692332267761 -0.15000000596046 4.97327899932861
v 0.91165292263031 -0.15000000596046 5.17024087905884
v 0.91165292263031 0.15000000596046 5.17024087905884
v 0.87692332267761 0.15000000596046 4.97327899932861
v 1.72720170021057 -0.15000000596046 4.74544763565063
v 1.79560577869415 -0.15000000596046 4.93338632583618
v 1.79560577869415 0.15000000596046 4.93338632583618
v 1.72720170021057 0.15000000596046 4.74544763565063
v 2.52500009536743 -0.15000000596046 4.37342834472656
v 2.625 -0.15000000596046 4.54663324356079
v 2.625 0.15000000596046 4.54663324356079
v 2.52500009536743 0.15000000596046 4.37342834472656
v 3.24607753753662 -0.15000000596046 3.8685245513916
v 3.3746349811554 -0.15000000596046 4.02173328399658
v 3.3746349811554 0.15000000596046 4.02173328399658
v 3.24607753753662 0.15000000596046 3.8685245513916
v 3.8685245513916 -0.15000000596046 3.24607753753662
v 4.02173328399658 -0.15000000596046 3.3746349811554
v 4.02173328399658 0.15000000596046 3.3746349811554
v 3.8685245513916 0.15000000596046 3.24607753753662
v 4.37342834472656 -0.15000000596046 2.52500009536743
v 4.54663324356079 -0.15000000596046 2.625
v 4.54663324356079 0.15000000596046 2.625
v 4.37342834472656 0.15000000596046 2.52500009536743
v 4.74544763565063 -0.15000000596046 1.72720170021057
v 4.93338632583618 -0.15000000596046 1.79560577869415
v 4.93338632583618 0.15000000596046 1.79560577869415
v 4.74544763565063 0.15000000596046 1.72720170021057
v 4.97327899932861 -0.15000000596046 0.87692332267761
v 5.17024087905884 -0.15000000596046 0.91165292263031
v 5.17024087905884 0.15000000596046 0.91165292263031
v 4.97327899932861 0.15000000596046 0.87692332267761
# 144 vertices

vn 0 -1 0
vn 1 0 0
vn 0.98480772972107 0 -0.17364820837975
vn 0 1 0
vn -1 0 0
vn -0.98480778932571 0 0.17364808917046
vn 0.93969261646271 0 -0.34202012419701
vn -0.93969261646271 0 0.34202012419701
vn 0.86602544784546 0 -0.49999991059303
vn -0.86602538824081 0 0.50000005960464
vn 0.76604443788528 0 -0.64278763532639
vn -0.76604443788528 0 0.64278763532639
vn 0.64278763532639 0 -0.76604443788528
vn -0.64278763532639 0 0.76604443788528
vn 0.49999991059303 0 -0.86602544784546
vn -0.50000005960464 0 0.86602538824081
vn 0.34202012419701 0 -0.93969261646271
vn -0.34202012419701 0 0.93969261646271
vn 0.17364820837975 0 -0.98480772972107
vn -0.17364808917046 0 0.98480778932571
vn 0 0 -1
vn 0 0 1
vn -0.17364820837975 0 -0.98480772972107
vn 0.17364808917046 0 0.98480778932571
vn -0.34202012419701 0 -0.93969261646271
vn 0.34202012419701 0 0.93969261646271
vn -0.49999991059303 0 -0.86602544784546
vn 0.50000005960464 0 0.86602538824081
vn -0.64278763532639 0 -0.76604443788528
vn 0.64278763532639 0 0.76604443788528
vn -0.76604443788528 0 -0.64278763532639
vn 0.76604443788528 0 0.64278763532639
vn -0.86602544784546 0 -0.49999991059303
vn 0.86602538824081 0 0.50000005960464
vn -0.93969261646271 0 -0.34202012419701
vn 0.93969261646271 0 0.34202012419701
vn -0.98480772972107 0 -0.17364820837975
vn 0.98480778932571 0 0.17364808917046
vn -0.98480772972107 0 0.17364820837975
vn 0.98480778932571 0 -0.17364808917046
vn -0.86602544784546 0 0.49999991059303
vn 0.86602538824081 0 -0.50000005960464
vn -0.76604443788528 0 0.64278763532639
vn 0.76604443788528 0 -0.64278763532639
vn -0.64278763532639 0 0.76604443788528
vn 0.64278763532639 0 -0.76604443788528
vn -0.49999991059303 0 0.86602544784546
vn 0.50000005960464 0 -0.86602538824081
vn -0.17364820837975 0 0.98480772972107
vn 0.17364808917046 0 -0.98480778932571
vn 0.17364820837975 0 0.98480772972107
vn -0.17364808917046 0 -0.98480778932571
vn 0.49999991059303 0 0.86602544784546
vn -0.50000005960464 0 -0.86602538824081
vn 0.64278763532639 0 0.76604443788528
vn -0.64278763532639 0 -0.76604443788528
vn 0.76604443788528 0 0.64278763532639
vn -0.76604443788528 0 -0.64278763532639
vn 0.86602544784546 0 0.49999991059303
vn -0.86602538824081 0 -0.50000005960464
vn 0.98480772972107 0 0.17364820837975
vn -0.98480778932571 0 -0.17364808917046
# 62 normals

vt 0.01904761977494 0.5 0
vt 0 0.5 0
vt 0.00759612349793 0.58682411909103 0
vt 0.02635436691344 0.58351653814316 0
vt 0 0 0
vt 0 1 0
vt 0.02777777798474 1 0
vt 0.02777777798474 0 0
vt 1 0.5 0
vt 0.98095238208771 0.5 0
vt 0.97364562749863 0.58351653814316 0
vt 0.99240386486053 0.58682411909103 0
vt 0.030153689906 0.67101007699966 0
vt 0.04805259779096 0.664495408535 0
vt 0.05555555596948 1 0
vt 0.05555555596948 0 0
vt 0.95194739103317 0.664495408535 0
vt 0.96984630823135 0.67101007699966 0
vt 0.06698729842901 0.75 0
vt 0.08348301798105 0.74047619104385 0
vt 0.08333333581686 1 0
vt 0.08333333581686 0 0
vt 0.91651695966721 0.74047619104385 0
vt 0.93301272392273 0.75 0
vt 0.11697778105736 0.82139384746552 0
vt 0.1315691024065 0.80915021896362 0
vt 0.11111111193895 1 0
vt 0.11111111193895 0 0
vt 0.86843091249466 0.80915021896362 0
vt 0.88302224874496 0.82139384746552 0
vt 0.17860619723797 0.88302218914032 0
vt 0.19084976613522 0.86843091249466 0
vt 0.13888889551163 1 0
vt 0.13888889551163 0 0
vt 0.80915021896362 0.86843091249466 0
vt 0.82139378786087 0.88302218914032 0
vt 0.25 0.93301272392273 0
vt 0.25952380895615 0.91651701927185 0
vt 0.16666667163372 1 0
vt 0.16666667163372 0 0
vt 0.74047619104385 0.91651701927185 0
vt 0.75 0.93301272392273 0
vt 0.32898992300034 0.96984630823135 0
vt 0.335504591465 0.95194739103317 0
vt 0.19444444775581 1 0
vt 0.19444444775581 0 0
vt 0.664495408535 0.95194739103317 0
vt 0.67101007699966 0.96984630823135 0
vt 0.41317591071129 0.99240386486053 0
vt 0.41648349165916 0.97364562749863 0
vt 0.22222222387791 1 0
vt 0.22222222387791 0 0
vt 0.58351647853851 0.97364562749863 0
vt 0.58682405948639 0.99240386486053 0
vt 0.5 1 0
vt 0.5 0.98095238208771 0
vt 0.25 1 0
vt 0.25 0 0
vt 0.27777779102325 1 0
vt 0.27777779102325 0 0
vt 0.30555555224419 1 0
vt 0.30555555224419 0 0
vt 0.33333334326744 1 0
vt 0.33333334326744 0 0
vt 0.36111110448837 1 0
vt 0.36111110448837 0 0
vt 0.38888889551163 1 0
vt 0.38888889551163 0 0
vt 0.41666665673256 1 0
vt 0.41666665673256 0 0
vt 0.44444444775581 1 0
vt 0.44444444775581 0 0
vt 0.47222220897675 1 0
vt 0.47222220897675 0 0
vt 0.5 0 0
vt 0.99240386486053 0.41317594051361 0
vt 0.97364562749863 0.41648352146149 0
vt 0.52777779102325 1 0
vt 0.52777779102325 0 0
vt 0.02635436691344 0.41648352146149 0
vt 0.00759612349793 0.41317594051361 0
vt 0.96984630823135 0.32898998260498 0
vt 0.95194739103317 0.33550465106964 0
vt 0.55555558204651 1 0
vt 0.55555558204651 0 0
vt 0.04805259779096 0.33550465106964 0
vt 0.030153689906 0.32898998260498 0
vt 0.93301272392273 0.25 0
vt 0.91651695966721 0.25952386856079 0
vt 0.58333331346512 1 0
vt 0.58333331346512 0 0
vt 0.08348301798105 0.25952386856079 0
vt 0.06698729842901 0.25 0
vt 0.88302224874496 0.17860627174377 0
vt 0.86843091249466 0.19084978103638 0
vt 0.61111110448837 1 0
vt 0.61111110448837 0 0
vt 0.1315691024065 0.19084978103638 0
vt 0.11697778105736 0.17860627174377 0
vt 0.82139378786087 0.11697781085968 0
vt 0.80915021896362 0.13156914710999 0
vt 0.63888889551163 1 0
vt 0.63888889551163 0 0
vt 0.19084976613522 0.13156914710999 0
vt 0.17860619723797 0.11697781085968 0
vt 0.75 0.06698727607727 0
vt 0.74047619104385 0.08348309993744 0
vt 0.66666668653488 1 0
vt 0.66666668653488 0 0
vt 0.25952380895615 0.08348309993744 0
vt 0.25 0.06698727607727 0
vt 0.67101007699966 0.03015375137329 0
vt 0.664495408535 0.04805266857147 0
vt 0.69444441795349 1 0
vt 0.69444441795349 0 0
vt 0.335504591465 0.04805266857147 0
vt 0.32898992300034 0.03015375137329 0
vt 0.58682405948639 0.00759613513947 0
vt 0.58351647853851 0.02635443210602 0
vt 0.72222220897675 1 0
vt 0.72222220897675 0 0
vt 0.41648349165916 0.02635443210602 0
vt 0.41317591071129 0.00759613513947 0
vt 0.5 0.01904761791229 0
vt 0.75 1 0
vt 0.75 0 0
vt 0.77777779102325 1 0
vt 0.77777779102325 0 0
vt 0.80555558204651 1 0
vt 0.80555558204651 0 0
vt 0.83333331346512 1 0
vt 0.83333331346512 0 0
vt 0.86111110448837 1 0
vt 0.86111110448837 0 0
vt 0.88888889551163 1 0
vt 0.88888889551163 0 0
vt 0.91666668653488 1 0
vt 0.91666668653488 0 0
vt 0.94444441795349 1 0
vt 0.94444441795349 0 0
vt 0.97222220897675 1 0
vt 0.97222220897675 0 0
vt 1 1 0
vt 1 0 0
# 144 texture coordinates

o Tube
usemtl default
f 5/4/1 6/3/1 2/2/1 1/1/1
f 6/8/3 7/7/3 3/6/2 2/5/2
f 7/12/4 8/11/4 4/10/4 3/9/4
f 8/8/6 5/7/6 1/6/5 4/5/5
f 9/14/1 10/13/1 6/3/1 5/4/1
f 10/16/7 11/15/7 7/7/3 6/8/3
f 11/18/4 12/17/4 8/11/4 7/12/4
f 12/16/8 9/15/8 5/7/6 8/8/6
f 13/20/1 14/19/1 10/13/1 9/14/1
f 14/22/9 15/21/9 11/15/7 10/16/7
f 15/24/4 16/23/4 12/17/4 11/18/4
f 16/22/10 13/21/10 9/15/8 12/16/8
f 17/26/1 18/25/1 14/19/1 13/20/1
f 18/28/11 19/27/11 15/21/9 14/22/9
f 19/30/4 20/29/4 16/23/4 15/24/4
f 20/28/12 17/27/12 13/21/10 16/22/10
f 21/32/1 22/31/1 18/25/1 17/26/1
f 22/34/13 23/33/13 19/27/11 18/28/11
f 23/36/4 24/35/4 20/29/4 19/30/4
f 24/34/14 21/33/14 17/27/12 20/28/12
f 25/38/1 26/37/1 22/31/1 21/32/1
f 26/40/15 27/39/15 23/33/13 22/34/13
f 27/42/4 28/41/4 24/35/4 23/36/4
f 28/40/16 25/39/16 21/33/14 24/34/14
f 29/44/1 30/43/1 26/37/1 25/38/1
f 30/46/17 31/45/17 27/39/15 26/40/15
f 31/48/4 32/47/4 28/41/4 27/42/4
f 32/46/18 29/45/18 25/39/16 28/40/16
f 33/50/1 34/49/1 30/43/1 29/44/1
f 34/52/19 35/51/19 31/45/17 30/46/17
f 35/54/4 36/53/4 32/47/4 31/48/4
f 36/52/20 33/51/20 29/45/18 32/46/18
f 37/56/1 38/55/1 34/49/1 33/50/1
f 38/58/21 39/57/21 35/51/19 34/52/19
f 39/55/4 40/56/4 36/53/4 35/54/4
f 40/58/22 37/57/22 33/51/20 36/52/20
f 41/53/1 42/54/1 38/55/1 37/56/1
f 42/60/23 43/59/23 39/57/21 38/58/21
f 43/49/4 44/50/4 40/56/4 39/55/4
f 44/60/24 41/59/24 37/57/22 40/58/22
f 45/47/1 46/48/1 42/54/1 41/53/1
f 46/62/25 47/61/25 43/59/23 42/60/23
f 47/43/4 48/44/4 44/50/4 43/49/4
f 48/62/26 45/61/26 41/59/24 44/60/24
f 49/41/1 50/42/1 46/48/1 45/47/1
f 50/64/27 51/63/27 47/61/25 46/62/25
f 51/37/4 52/38/4 48/44/4 47/43/4
f 52/64/28 49/63/28 45/61/26 48/62/26
f 53/35/1 54/36/1 50/42/1 49/41/1
f 54/66/29 55/65/29 51/63/27 50/64/27
f 55/31/4 56/32/4 52/38/4 51/37/4
f 56/66/30 53/65/30 49/63/28 52/64/28
f 57/29/1 58/30/1 54/36/1 53/35/1
f 58/68/31 59/67/31 55/65/29 54/66/29
f 59/25/4 60/26/4 56/32/4 55/31/4
f 60/68/32 57/67/32 53/65/30 56/66/30
f 61/23/1 62/24/1 58/30/1 57/29/1
f 62/70/33 63/69/33 59/67/31 58/68/31
f 63/19/4 64/20/4 60/26/4 59/25/4
f 64/70/34 61/69/34 57/67/32 60/68/32
f 65/17/1 66/18/1 62/24/1 61/23/1
f 66/72/35 67/71/35 63/69/33 62/70/33
f 67/13/4 68/14/4 64/20/4 63/19/4
f 68/72/36 65/71/36 61/69/34 64/70/34
f 69/11/1 70/12/1 66/18/1 65/17/1
f 70/74/37 71/73/37 67/71/35 66/72/35
f 71/3/4 72/4/4 68/14/4 67/13/4
f 72/74/38 69/73/38 65/71/36 68/72/36
f 73/10/1 74/9/1 70/12/1 69/11/1
f 74/75/5 75/55/5 71/73/37 70/74/37
f 75/2/4 76/1/4 72/4/4 71/3/4
f 76/75/2 73/55/2 69/73/38 72/74/38
f 77/77/1 78/76/1 74/9/1 73/10/1
f 78/79/39 79/78/39 75/55/5 74/75/5
f 79/81/4 80/80/4 76/1/4 75/2/4
f 80/79/40 77/78/40 73/55/2 76/75/2
f 81/83/1 82/82/1 78/76/1 77/77/1
f 82/85/8 83/84/8 79/78/39 78/79/39
f 83/87/4 84/86/4 80/80/4 79/81/4
f 84/85/7 81/84/7 77/78/40 80/79/40
f 85/89/1 86/88/1 82/82/1 81/83/1
f 86/91/41 87/90/41 83/84/8 82/85/8
f 87/93/4 88/92/4 84/86/4 83/87/4
f 88/91/42 85/90/42 81/84/7 84/85/7
f 89/95/1 90/94/1 86/88/1 85/89/1
f 90/97/43 91/96/43 87/90/41 86/91/41
f 91/99/4 92/98/4 88/92/4 87/93/4
f 92/97/44 89/96/44 85/90/42 88/91/42
f 93/101/1 94/100/1 90/94/1 89/95/1
f 94/103/45 95/102/45 91/96/43 90/97/43
f 95/105/4 96/104/4 92/98/4 91/99/4
f 96/103/46 93/102/46 89/96/44 92/97/44
f 97/107/1 98/106/1 94/100/1 93/101/1
f 98/109/47 99/108/47 95/102/45 94/103/45
f 99/111/4 100/110/4 96/104/4 95/105/4
f 100/109/48 97/108/48 93/102/46 96/103/46
f 101/113/1 102/112/1 98/106/1 97/107/1
f 102/115/18 103/114/18 99/108/47 98/109/47
f 103/117/4 104/116/4 100/110/4 99/111/4
f 104/115/17 101/114/17 97/108/48 100/109/48
f 105/119/1 106/118/1 102/112/1 101/113/1
f 106/121/49 107/120/49 103/114/18 102/115/18
f 107/123/4 108/122/4 104/116/4 103/117/4
f 108/121/50 105/120/50 101/114/17 104/115/17
f 109/124/1 110/75/1 106/118/1 105/119/1
f 110/126/22 111/125/22 107/120/49 106/121/49
f 111/75/4 112/124/4 108/122/4 107/123/4
f 112/126/21 109/125/21 105/120/50 108/121/50
f 113/122/1 114/123/1 110/75/1 109/124/1
f 114/128/51 115/127/51 111/125/22 110/126/22
f 115/118/4 116/119/4 112/124/4 111/75/4
f 116/128/52 113/127/52 109/125/21 112/126/21
f 117/116/1 118/117/1 114/123/1 113/122/1
f 118/130/26 119/129/26 115/127/51 114/128/51
f 119/112/4 120/113/4 116/119/4 115/118/4
f 120/130/25 117/129/25 113/127/52 116/128/52
f 121/110/1 122/111/1 118/117/1 117/116/1
f 122/132/53 123/131/53 119/129/26 118/130/26
f 123/106/4 124/107/4 120/113/4 119/112/4
f 124/132/54 121/131/54 117/129/25 120/130/25
f 125/104/1 126/105/1 122/111/1 121/110/1
f 126/134/55 127/133/55 123/131/53 122/132/53
f 127/100/4 128/101/4 124/107/4 123/106/4
f 128/134/56 125/133/56 121/131/54 124/132/54
f 129/98/1 130/99/1 126/105/1 125/104/1
f 130/136/57 131/135/57 127/133/55 126/134/55
f 131/94/4 132/95/4 128/101/4 127/100/4
f 132/136/58 129/135/58 125/133/56 128/134/56
f 133/92/1 134/93/1 130/99/1 129/98/1
f 134/138/59 135/137/59 131/135/57 130/136/57
f 135/88/4 136/89/4 132/95/4 131/94/4
f 136/138/60 133/137/60 129/135/58 132/136/58
f 137/86/1 138/87/1 134/93/1 133/92/1
f 138/140/36 139/139/36 135/137/59 134/138/59
f 139/82/4 140/83/4 136/89/4 135/88/4
f 140/140/35 137/139/35 133/137/60 136/138/60
f 141/80/1 142/81/1 138/87/1 137/86/1
f 142/142/61 143/141/61 139/139/36 138/140/36
f 143/76/4 144/77/4 140/83/4 139/82/4
f 144/142/62 141/141/62 137/139/35 140/140/35
f 1/1/1 2/2/1 142/81/1 141/80/1
f 2/144/2 3/143/2 143/141/61 142/142/61
f 3/9/4 4/10/4 144/77/4 143/76/4
f 4/144/5 1/143/5 141/141/62 144/142/62

